<?xml version="1.0" encoding="UTF-8" standalone="no"?>
<!DOCTYPE svg PUBLIC "-//W3C//DTD SVG 1.1//EN"
 "http://www.w3.org/Graphics/SVG/1.1/DTD/svg11.dtd">
<!-- Generated by graphviz version 2.43.0 (0)
 -->
<!-- Title: G Pages: 1 -->
<svg width="549pt" height="369pt"
 viewBox="0.00 0.00 549.00 369.00" xmlns="http://www.w3.org/2000/svg" xmlns:xlink="http://www.w3.org/1999/xlink">
<g id="graph0" class="graph" transform="scale(1 1) rotate(0) translate(4 365)">
<title>G</title>
<polygon fill="white" stroke="transparent" points="-4,4 -4,-365 545,-365 545,4 -4,4"/>
<g id="clust1" class="cluster">
<title>cluster_0</title>
<polygon fill="lightgrey" stroke="lightgrey" points="171,-8 171,-245 294,-245 294,-8 171,-8"/>
<text text-anchor="middle" x="232.5" y="-229.8" font-family="Times-Roman" font-size="14.00">Server</text>
</g>
<g id="clust2" class="cluster">
<title>cluster_1</title>
<polygon fill="lightgrey" stroke="lightgrey" points="314,-116 314,-245 533,-245 533,-116 314,-116"/>
<text text-anchor="middle" x="423.5" y="-229.8" font-family="Times-Roman" font-size="14.00">Store</text>
</g>
<g id="clust3" class="cluster">
<title>cluster_10</title>
<polygon fill="none" stroke="black" points="8,-224 8,-353 151,-353 151,-224 8,-224"/>
<text text-anchor="middle" x="79.5" y="-337.8" font-family="Times-Roman" font-size="14.00">Legend</text>
</g>
<!-- kv -->
<g id="node1" class="node">
<title>kv</title>
<path fill="coral" stroke="coral" d="M247.5,-214C247.5,-214 217.5,-214 217.5,-214 211.5,-214 205.5,-208 205.5,-202 205.5,-202 205.5,-190 205.5,-190 205.5,-184 211.5,-178 217.5,-178 217.5,-178 247.5,-178 247.5,-178 253.5,-178 259.5,-184 259.5,-190 259.5,-190 259.5,-202 259.5,-202 259.5,-208 253.5,-214 247.5,-214"/>
<text text-anchor="middle" x="232.5" y="-192.3" font-family="Times-Roman" font-size="14.00">kv</text>
</g>
<!-- frontend_0 -->
<g id="node5" class="node">
<title>frontend_0</title>
<path fill="cornflowerblue" stroke="cornflowerblue" d="M402,-214C402,-214 334,-214 334,-214 328,-214 322,-208 322,-202 322,-202 322,-190 322,-190 322,-184 328,-178 334,-178 334,-178 402,-178 402,-178 408,-178 414,-184 414,-190 414,-190 414,-202 414,-202 414,-208 408,-214 402,-214"/>
<text text-anchor="middle" x="368" y="-192.3" font-family="Times-Roman" font-size="14.00">frontend_0</text>
</g>
<!-- kv&#45;&gt;frontend_0 -->
<g id="edge4" class="edge">
<title>kv&#45;&gt;frontend_0</title>
<path fill="none" stroke="black" d="M259.56,-196C274.41,-196 293.6,-196 311.65,-196"/>
<polygon fill="black" stroke="black" points="311.81,-199.5 321.81,-196 311.81,-192.5 311.81,-199.5"/>
</g>
<!-- watch -->
<g id="node2" class="node">
<title>watch</title>
<path fill="coral" stroke="coral" d="M249.5,-160C249.5,-160 215.5,-160 215.5,-160 209.5,-160 203.5,-154 203.5,-148 203.5,-148 203.5,-136 203.5,-136 203.5,-130 209.5,-124 215.5,-124 215.5,-124 249.5,-124 249.5,-124 255.5,-124 261.5,-130 261.5,-136 261.5,-136 261.5,-148 261.5,-148 261.5,-154 255.5,-160 249.5,-160"/>
<text text-anchor="middle" x="232.5" y="-138.3" font-family="Times-Roman" font-size="14.00">watch</text>
</g>
<!-- frontend_1 -->
<g id="node6" class="node">
<title>frontend_1</title>
<path fill="cornflowerblue" stroke="cornflowerblue" d="M402,-160C402,-160 334,-160 334,-160 328,-160 322,-154 322,-148 322,-148 322,-136 322,-136 322,-130 328,-124 334,-124 334,-124 402,-124 402,-124 408,-124 414,-130 414,-136 414,-136 414,-148 414,-148 414,-154 408,-160 402,-160"/>
<text text-anchor="middle" x="368" y="-138.3" font-family="Times-Roman" font-size="14.00">frontend_1</text>
</g>
<!-- watch&#45;&gt;frontend_1 -->
<g id="edge6" class="edge">
<title>watch&#45;&gt;frontend_1</title>
<path fill="none" stroke="black" d="M261.81,-142C276.26,-142 294.36,-142 311.45,-142"/>
<polygon fill="black" stroke="black" points="311.92,-145.5 321.92,-142 311.92,-138.5 311.92,-145.5"/>
</g>
<!-- lease -->
<g id="node3" class="node">
<title>lease</title>
<path fill="coral" stroke="coral" d="M247.5,-106C247.5,-106 217.5,-106 217.5,-106 211.5,-106 205.5,-100 205.5,-94 205.5,-94 205.5,-82 205.5,-82 205.5,-76 211.5,-70 217.5,-70 217.5,-70 247.5,-70 247.5,-70 253.5,-70 259.5,-76 259.5,-82 259.5,-82 259.5,-94 259.5,-94 259.5,-100 253.5,-106 247.5,-106"/>
<text text-anchor="middle" x="232.5" y="-84.3" font-family="Times-Roman" font-size="14.00">lease</text>
</g>
<!-- maintenance -->
<g id="node4" class="node">
<title>maintenance</title>
<path fill="coral" stroke="coral" d="M274,-52C274,-52 191,-52 191,-52 185,-52 179,-46 179,-40 179,-40 179,-28 179,-28 179,-22 185,-16 191,-16 191,-16 274,-16 274,-16 280,-16 286,-22 286,-28 286,-28 286,-40 286,-40 286,-46 280,-52 274,-52"/>
<text text-anchor="middle" x="232.5" y="-30.3" font-family="Times-Roman" font-size="14.00">maintenance</text>
</g>
<!-- backend -->
<g id="node7" class="node">
<title>backend</title>
<path fill="coral" stroke="coral" d="M513,-187C513,-187 462,-187 462,-187 456,-187 450,-181 450,-175 450,-175 450,-163 450,-163 450,-157 456,-151 462,-151 462,-151 513,-151 513,-151 519,-151 525,-157 525,-163 525,-163 525,-175 525,-175 525,-181 519,-187 513,-187"/>
<text text-anchor="middle" x="487.5" y="-165.3" font-family="Times-Roman" font-size="14.00">backend</text>
</g>
<!-- frontend_0&#45;&gt;backend -->
<g id="edge1" class="edge">
<title>frontend_0&#45;&gt;backend</title>
<path fill="none" stroke="black" d="M414.09,-185.64C422.56,-183.69 431.42,-181.66 439.93,-179.7"/>
<polygon fill="black" stroke="black" points="440.75,-183.1 449.72,-177.45 439.19,-176.28 440.75,-183.1"/>
</g>
<!-- frontend_1&#45;&gt;backend -->
<g id="edge2" class="edge">
<title>frontend_1&#45;&gt;backend</title>
<path fill="none" stroke="black" d="M414.09,-152.36C422.56,-154.31 431.42,-156.34 439.93,-158.3"/>
<polygon fill="black" stroke="black" points="439.19,-161.72 449.72,-160.55 440.75,-154.9 439.19,-161.72"/>
</g>
<!-- client_0 -->
<g id="node8" class="node">
<title>client_0</title>
<path fill="lightgrey" stroke="black" d="M102.5,-214C102.5,-214 56.5,-214 56.5,-214 50.5,-214 44.5,-208 44.5,-202 44.5,-202 44.5,-190 44.5,-190 44.5,-184 50.5,-178 56.5,-178 56.5,-178 102.5,-178 102.5,-178 108.5,-178 114.5,-184 114.5,-190 114.5,-190 114.5,-202 114.5,-202 114.5,-208 108.5,-214 102.5,-214"/>
<text text-anchor="middle" x="79.5" y="-192.3" font-family="Times-Roman" font-size="14.00">client_0</text>
</g>
<!-- client_0&#45;&gt;kv -->
<g id="edge3" class="edge">
<title>client_0&#45;&gt;kv</title>
<path fill="none" stroke="black" d="M114.76,-196C138.72,-196 170.66,-196 195.07,-196"/>
<polygon fill="black" stroke="black" points="195.36,-199.5 205.36,-196 195.36,-192.5 195.36,-199.5"/>
</g>
<!-- client_1 -->
<g id="node9" class="node">
<title>client_1</title>
<path fill="lightgrey" stroke="black" d="M102.5,-160C102.5,-160 56.5,-160 56.5,-160 50.5,-160 44.5,-154 44.5,-148 44.5,-148 44.5,-136 44.5,-136 44.5,-130 50.5,-124 56.5,-124 56.5,-124 102.5,-124 102.5,-124 108.5,-124 114.5,-130 114.5,-136 114.5,-136 114.5,-148 114.5,-148 114.5,-154 108.5,-160 102.5,-160"/>
<text text-anchor="middle" x="79.5" y="-138.3" font-family="Times-Roman" font-size="14.00">client_1</text>
</g>
<!-- client_1&#45;&gt;watch -->
<g id="edge5" class="edge">
<title>client_1&#45;&gt;watch</title>
<path fill="none" stroke="black" d="M114.76,-142C138.11,-142 169.04,-142 193.2,-142"/>
<polygon fill="black" stroke="black" points="193.44,-145.5 203.44,-142 193.44,-138.5 193.44,-145.5"/>
</g>
<!-- a -->
<g id="node10" class="node">
<title>a</title>
<path fill="coral" stroke="coral" d="M126.5,-322C126.5,-322 32.5,-322 32.5,-322 26.5,-322 20.5,-316 20.5,-310 20.5,-310 20.5,-298 20.5,-298 20.5,-292 26.5,-286 32.5,-286 32.5,-286 126.5,-286 126.5,-286 132.5,-286 138.5,-292 138.5,-298 138.5,-298 138.5,-310 138.5,-310 138.5,-316 132.5,-322 126.5,-322"/>
<text text-anchor="middle" x="79.5" y="-300.3" font-family="Times-Roman" font-size="14.00">Multi&#45;threaded</text>
</g>
<!-- b -->
<g id="node11" class="node">
<title>b</title>
<path fill="cornflowerblue" stroke="cornflowerblue" d="M131,-268C131,-268 28,-268 28,-268 22,-268 16,-262 16,-256 16,-256 16,-244 16,-244 16,-238 22,-232 28,-232 28,-232 131,-232 131,-232 137,-232 143,-238 143,-244 143,-244 143,-256 143,-256 143,-262 137,-268 131,-268"/>
<text text-anchor="middle" x="79.5" y="-246.3" font-family="Times-Roman" font-size="14.00">Single&#45;threaded</text>
</g>
</g>
</svg>
