<?xml version="1.0" encoding="UTF-8" standalone="no"?>
<!DOCTYPE svg PUBLIC "-//W3C//DTD SVG 1.1//EN"
 "http://www.w3.org/Graphics/SVG/1.1/DTD/svg11.dtd">
<!-- Generated by graphviz version 2.43.0 (0)
 -->
<!-- Title: G Pages: 1 -->
<svg width="591pt" height="296pt"
 viewBox="0.00 0.00 591.00 296.20" xmlns="http://www.w3.org/2000/svg" xmlns:xlink="http://www.w3.org/1999/xlink">
<g id="graph0" class="graph" transform="scale(1 1) rotate(0) translate(4 292.2)">
<title>G</title>
<polygon fill="white" stroke="transparent" points="-4,4 -4,-292.2 587,-292.2 587,4 -4,4"/>
<g id="clust1" class="cluster">
<title>cluster_0</title>
<polygon fill="none" stroke="black" points="8,-151.2 8,-280.2 139,-280.2 139,-151.2 8,-151.2"/>
<text text-anchor="middle" x="73.5" y="-265" font-family="Times-Roman" font-size="14.00">Legend</text>
</g>
<!-- server -->
<g id="node1" class="node">
<title>server</title>
<path fill="none" stroke="black" d="M92.5,-141.2C92.5,-141.2 54.5,-141.2 54.5,-141.2 48.5,-141.2 42.5,-135.2 42.5,-129.2 42.5,-129.2 42.5,-117.2 42.5,-117.2 42.5,-111.2 48.5,-105.2 54.5,-105.2 54.5,-105.2 92.5,-105.2 92.5,-105.2 98.5,-105.2 104.5,-111.2 104.5,-117.2 104.5,-117.2 104.5,-129.2 104.5,-129.2 104.5,-135.2 98.5,-141.2 92.5,-141.2"/>
<text text-anchor="middle" x="73.5" y="-119.5" font-family="Times-Roman" font-size="14.00">Server</text>
</g>
<!-- frontend -->
<g id="node2" class="node">
<title>frontend</title>
<path fill="none" stroke="black" d="M330,-141.2C330,-141.2 277,-141.2 277,-141.2 271,-141.2 265,-135.2 265,-129.2 265,-129.2 265,-117.2 265,-117.2 265,-111.2 271,-105.2 277,-105.2 277,-105.2 330,-105.2 330,-105.2 336,-105.2 342,-111.2 342,-117.2 342,-117.2 342,-129.2 342,-129.2 342,-135.2 336,-141.2 330,-141.2"/>
<text text-anchor="middle" x="303.5" y="-119.5" font-family="Times-Roman" font-size="14.00">Frontend</text>
</g>
<!-- server&#45;&gt;frontend -->
<g id="edge1" class="edge">
<title>server&#45;&gt;frontend</title>
<path fill="none" stroke="coral" d="M104.7,-127.27C117.25,-130.55 130.78,-136.49 139,-147.2 153.4,-165.97 131.5,-237.27 149,-253.2 181.21,-282.51 210.65,-277.2 247,-253.2 281.07,-230.7 294.3,-182.53 299.38,-151.57"/>
<polygon fill="coral" stroke="coral" points="302.89,-151.8 300.86,-141.4 295.96,-150.79 302.89,-151.8"/>
<text text-anchor="middle" x="198" y="-277" font-family="Times-Roman" font-size="14.00">CurrentServer</text>
</g>
<!-- server&#45;&gt;frontend -->
<g id="edge2" class="edge">
<title>server&#45;&gt;frontend</title>
<path fill="none" stroke="coral" d="M104.78,-127.56C117.18,-130.9 130.58,-136.8 139,-147.2 158.21,-170.95 125.88,-195.23 149,-215.2 181.96,-243.67 209.07,-236.61 247,-215.2 271.12,-201.58 285.93,-172.81 294.12,-151.04"/>
<polygon fill="coral" stroke="coral" points="297.52,-151.91 297.52,-141.32 290.91,-149.6 297.52,-151.91"/>
<text text-anchor="middle" x="198" y="-237" font-family="Times-Roman" font-size="14.00">Get</text>
</g>
<!-- server&#45;&gt;frontend -->
<g id="edge3" class="edge">
<title>server&#45;&gt;frontend</title>
<path fill="none" stroke="coral" d="M104.6,-128.49C116.68,-131.99 129.87,-137.75 139,-147.2 148.77,-157.31 137.6,-168.98 149,-177.2 184.33,-202.67 206.65,-193.59 247,-177.2 261.33,-171.38 273.99,-159.88 283.59,-148.98"/>
<polygon fill="coral" stroke="coral" points="286.32,-151.17 290.02,-141.25 280.93,-146.7 286.32,-151.17"/>
<text text-anchor="middle" x="198" y="-196" font-family="Times-Roman" font-size="14.00">Insert</text>
</g>
<!-- server&#45;&gt;frontend -->
<g id="edge4" class="edge">
<title>server&#45;&gt;frontend</title>
<path fill="none" stroke="coral" d="M104.71,-131.21C118.16,-134.38 134.27,-137.63 149,-139.2 192.31,-143.8 203.87,-145.29 247,-139.2 249.65,-138.82 252.36,-138.35 255.08,-137.81"/>
<polygon fill="coral" stroke="coral" points="255.92,-141.21 264.89,-135.57 254.36,-134.38 255.92,-141.21"/>
<text text-anchor="middle" x="198" y="-147" font-family="Times-Roman" font-size="14.00">Remove</text>
</g>
<!-- server&#45;&gt;frontend -->
<g id="edge5" class="edge">
<title>server&#45;&gt;frontend</title>
<path fill="none" stroke="coral" d="M104.58,-121.71C118.15,-121.11 134.38,-120.49 149,-120.2 192.55,-119.32 203.46,-119.02 247,-120.2 249.53,-120.27 252.13,-120.35 254.75,-120.45"/>
<polygon fill="coral" stroke="coral" points="254.75,-123.96 264.89,-120.89 255.06,-116.96 254.75,-123.96"/>
<text text-anchor="middle" x="198" y="-124" font-family="Times-Roman" font-size="14.00">Txn</text>
</g>
<!-- server&#45;&gt;frontend -->
<g id="edge6" class="edge">
<title>server&#45;&gt;frontend</title>
<path fill="none" stroke="cornflowerblue" d="M104.51,-112.2C117.92,-107.84 134.05,-103.36 149,-101.2 192.11,-94.97 204.22,-93.03 247,-101.2 249.68,-101.71 252.39,-102.35 255.1,-103.08"/>
<polygon fill="cornflowerblue" stroke="cornflowerblue" points="254.26,-106.49 264.85,-106.1 256.33,-99.8 254.26,-106.49"/>
<text text-anchor="middle" x="198" y="-105" font-family="Times-Roman" font-size="14.00">WatchRange</text>
</g>
<!-- server&#45;&gt;frontend -->
<g id="edge7" class="edge">
<title>server&#45;&gt;frontend</title>
<path fill="none" stroke="coral" d="M96.42,-105.13C110.49,-94.74 129.7,-82.68 149,-77.2 190.9,-65.31 206.03,-62.43 247,-77.2 258.84,-81.47 269.94,-89.48 279.05,-97.63"/>
<polygon fill="coral" stroke="coral" points="276.87,-100.39 286.52,-104.75 281.7,-95.32 276.87,-100.39"/>
<text text-anchor="middle" x="198" y="-81" font-family="Times-Roman" font-size="14.00">CreateLease</text>
</g>
<!-- server&#45;&gt;frontend -->
<g id="edge8" class="edge">
<title>server&#45;&gt;frontend</title>
<path fill="none" stroke="coral" d="M86.15,-104.91C99.01,-86.62 121.55,-59.62 149,-48.2 189.21,-31.46 208.11,-28.59 247,-48.2 266.77,-58.16 281.25,-78.87 290.45,-96"/>
<polygon fill="coral" stroke="coral" points="287.4,-97.71 295.02,-105.07 293.65,-94.56 287.4,-97.71"/>
<text text-anchor="middle" x="198" y="-52" font-family="Times-Roman" font-size="14.00">RefreshLease</text>
</g>
<!-- server&#45;&gt;frontend -->
<g id="edge9" class="edge">
<title>server&#45;&gt;frontend</title>
<path fill="none" stroke="coral" d="M80.92,-105.07C90.97,-79.79 113.09,-34.96 149,-16.2 187.61,3.96 209.78,6.42 247,-16.2 274.98,-33.2 289.49,-69.38 296.54,-94.95"/>
<polygon fill="coral" stroke="coral" points="293.2,-96.01 299.05,-104.84 299.98,-94.29 293.2,-96.01"/>
<text text-anchor="middle" x="198" y="-20" font-family="Times-Roman" font-size="14.00">RevokeLease</text>
</g>
<!-- backend -->
<g id="node3" class="node">
<title>backend</title>
<path fill="none" stroke="black" d="M571,-141.2C571,-141.2 519,-141.2 519,-141.2 513,-141.2 507,-135.2 507,-129.2 507,-129.2 507,-117.2 507,-117.2 507,-111.2 513,-105.2 519,-105.2 519,-105.2 571,-105.2 571,-105.2 577,-105.2 583,-111.2 583,-117.2 583,-117.2 583,-129.2 583,-129.2 583,-135.2 577,-141.2 571,-141.2"/>
<text text-anchor="middle" x="545" y="-119.5" font-family="Times-Roman" font-size="14.00">Backend</text>
</g>
<!-- frontend&#45;&gt;backend -->
<g id="edge11" class="edge">
<title>frontend&#45;&gt;backend</title>
<path fill="none" stroke="cornflowerblue" d="M326.85,-141.34C336.46,-148.02 348.18,-154.78 360,-158.2 415.08,-174.12 433.95,-174.23 489,-158.2 497.44,-155.74 505.81,-151.56 513.39,-146.92"/>
<polygon fill="cornflowerblue" stroke="cornflowerblue" points="515.44,-149.76 521.87,-141.34 511.6,-143.91 515.44,-149.76"/>
<text text-anchor="middle" x="424.5" y="-173" font-family="Times-Roman" font-size="14.00">ApplyLocalChange</text>
</g>
<!-- frontend&#45;&gt;backend -->
<g id="edge12" class="edge">
<title>frontend&#45;&gt;backend</title>
<path fill="none" stroke="cornflowerblue" d="M342.19,-123.2C383.98,-123.2 451.48,-123.2 496.77,-123.2"/>
<polygon fill="cornflowerblue" stroke="cornflowerblue" points="496.93,-126.7 506.93,-123.2 496.93,-119.7 496.93,-126.7"/>
<text text-anchor="middle" x="424.5" y="-127" font-family="Times-Roman" font-size="14.00">ApplyChanges</text>
</g>
<!-- frontend&#45;&gt;backend -->
<g id="edge13" class="edge">
<title>frontend&#45;&gt;backend</title>
<path fill="none" stroke="coral" d="M342.29,-108.42C348.14,-106.67 354.17,-105.17 360,-104.2 416.56,-94.79 432.46,-94.71 489,-104.2 491.66,-104.65 494.37,-105.21 497.08,-105.85"/>
<polygon fill="coral" stroke="coral" points="496.29,-109.26 506.86,-108.51 498.13,-102.51 496.29,-109.26"/>
<text text-anchor="middle" x="424.5" y="-108" font-family="Times-Roman" font-size="14.00">GetPatch</text>
</g>
<!-- backend&#45;&gt;frontend -->
<g id="edge10" class="edge">
<title>backend&#45;&gt;frontend</title>
<path fill="none" stroke="cornflowerblue" d="M532.22,-105.05C522.45,-91.79 507.22,-74.84 489,-67.2 436.13,-45.02 412.92,-45.14 360,-67.2 345.26,-73.34 332.43,-85.52 322.82,-96.95"/>
<polygon fill="cornflowerblue" stroke="cornflowerblue" points="319.88,-95.04 316.42,-105.05 325.37,-99.38 319.88,-95.04"/>
<text text-anchor="middle" x="424.5" y="-71" font-family="Times-Roman" font-size="14.00">ApplyPatch</text>
</g>
<!-- a -->
<g id="node4" class="node">
<title>a</title>
<path fill="none" stroke="coral" d="M115,-249.2C115,-249.2 32,-249.2 32,-249.2 26,-249.2 20,-243.2 20,-237.2 20,-237.2 20,-225.2 20,-225.2 20,-219.2 26,-213.2 32,-213.2 32,-213.2 115,-213.2 115,-213.2 121,-213.2 127,-219.2 127,-225.2 127,-225.2 127,-237.2 127,-237.2 127,-243.2 121,-249.2 115,-249.2"/>
<text text-anchor="middle" x="73.5" y="-227.5" font-family="Times-Roman" font-size="14.00">Synchronous</text>
</g>
<!-- b -->
<g id="node5" class="node">
<title>b</title>
<path fill="none" stroke="cornflowerblue" d="M119,-195.2C119,-195.2 28,-195.2 28,-195.2 22,-195.2 16,-189.2 16,-183.2 16,-183.2 16,-171.2 16,-171.2 16,-165.2 22,-159.2 28,-159.2 28,-159.2 119,-159.2 119,-159.2 125,-159.2 131,-165.2 131,-171.2 131,-171.2 131,-183.2 131,-183.2 131,-189.2 125,-195.2 119,-195.2"/>
<text text-anchor="middle" x="73.5" y="-173.5" font-family="Times-Roman" font-size="14.00">Asynchronous</text>
</g>
</g>
</svg>
